<?xml version="1.0" encoding="utf-8"?>
<!-- Generator: Adobe Illustrator 18.1.1, SVG Export Plug-In . SVG Version: 6.00 Build 0)  -->
<!DOCTYPE svg PUBLIC "-//W3C//DTD SVG 1.1//EN" "http://www.w3.org/Graphics/SVG/1.1/DTD/svg11.dtd">
<svg version="1.1" id="Layer_1" xmlns="http://www.w3.org/2000/svg" xmlns:xlink="http://www.w3.org/1999/xlink" x="0px" y="0px"
	 viewBox="0 0 551.9 560" enable-background="new 0 0 551.9 560" xml:space="preserve">
<g>
	<circle fill="#C6F9FF" cx="272.4" cy="280.2" r="266.4"/>
	<path fill="#FFFFFF" d="M272.4,552.5c-72.8,0-141.1-28.3-192.6-79.8C28.3,421.3,0,352.9,0,280.2S28.3,139,79.8,87.6
		C131.2,36.1,199.6,7.8,272.4,7.8S413.5,36.1,465,87.6c51.4,51.4,79.8,119.8,79.8,192.6S516.4,421.3,465,472.7
		S345.1,552.5,272.4,552.5z M272.4,19.8c-69.5,0-134.9,27.1-184.1,76.3C39.1,145.2,12,210.6,12,280.2s27.1,134.9,76.3,184.1
		c49.2,49.2,114.6,76.3,184.1,76.3s134.9-27.1,184.1-76.3s76.3-114.6,76.3-184.1S505.7,145.2,456.5,96
		C407.3,46.9,341.9,19.8,272.4,19.8z"/>
</g>
<g>
	<g>
		<path fill="#FF5A53" d="M361.8,86.9l-24,6.5c3.9,25.8-6.9,48.9-24.5,51.9c-16.2,2.8-32.5-12.4-38.8-34.8l-82.7,22.2
			c3,25-7.6,46.9-24.7,49.8c-15.7,2.7-31.5-11.5-38.3-32.9l-27.9,7.5c-30.3,8.1-48.5,39.6-40.3,69.9L116,433.1
			c8.1,30.3,39.6,48.5,69.9,40.3l260.9-70.1c30.3-8.1,48.4-39.6,40.3-69.9l-55.4-206.1C423.6,96.9,392.1,78.8,361.8,86.9z"/>
	</g>
	<g>
		<path fill="#FF7F79" d="M135.9,226.9L373,163.2c15.3-4.1,31.1,5,35.2,20.3l40,148.8c4.1,15.3-5,31.1-20.3,35.2l-237.1,63.7
			c-15.3,4.1-31.1-5-35.2-20.3l-40-148.8C111.5,246.8,120.6,231,135.9,226.9z"/>
	</g>
	<g>
		
			<ellipse transform="matrix(-0.9704 0.2415 -0.2415 -0.9704 628.8896 133.1088)" fill="#FF5A53" cx="306.3" cy="105.1" rx="19.3" ry="28.3"/>
	</g>
	<g>
		
			<ellipse transform="matrix(-0.9704 0.2415 -0.2415 -0.9704 347.5094 242.9622)" fill="#FF5A53" cx="158.9" cy="142.8" rx="19.3" ry="28.3"/>
	</g>
	<g>
		<path fill="#FFBCB9" d="M221.5,230.9l31.8-8.1c4.8-1.2,9.7,1.7,10.9,6.5l8.1,31.8c1.2,4.8-1.7,9.7-6.5,10.9l-31.8,8.1
			c-4.8,1.2-9.7-1.7-10.9-6.5l-8.1-31.8C213.8,237,216.7,232.1,221.5,230.9z"/>
	</g>
	<g>
		<path fill="#FFBCB9" d="M279.4,214l31.8-8.1c4.8-1.2,9.7,1.7,10.9,6.5l8.1,31.8c1.2,4.8-1.7,9.7-6.5,10.9l-31.8,8.1
			c-4.8,1.2-9.7-1.7-10.9-6.5l-8.1-31.8C271.7,220.2,274.6,215.3,279.4,214z"/>
	</g>
	<g>
		<path fill="#FFBCB9" d="M337.2,197.2l31.8-8.1c4.8-1.2,9.7,1.7,10.9,6.5l8.1,31.8c1.2,4.8-1.7,9.7-6.5,10.9l-31.8,8.1
			c-4.8,1.2-9.7-1.7-10.9-6.5l-8.1-31.8C329.6,203.3,332.5,198.4,337.2,197.2z"/>
	</g>
	<g>
		<path fill="#FFBCB9" d="M233.8,287.9l31.8-8.1c4.8-1.2,9.7,1.7,10.9,6.5l8.1,31.8c1.2,4.8-1.7,9.7-6.5,10.9l-31.8,8.1
			c-4.8,1.2-9.7-1.7-10.9-6.5l-8.1-31.8C226.1,294,229,289.1,233.8,287.9z"/>
	</g>
	<g>
		<path fill="#FFBCB9" d="M291.7,271l31.8-8.1c4.8-1.2,9.7,1.7,10.9,6.5l8.1,31.8c1.2,4.8-1.7,9.7-6.5,10.9l-31.8,8.1
			c-4.8,1.2-9.7-1.7-10.9-6.5l-8.1-31.8C284,277.1,286.9,272.2,291.7,271z"/>
	</g>
	<g>
		<path fill="#FFBCB9" d="M349.5,254.1l31.8-8.1c4.8-1.2,9.7,1.7,10.9,6.5l8.1,31.8c1.2,4.8-1.7,9.7-6.5,10.9l-31.8,8.1
			c-4.8,1.2-9.7-1.7-10.9-6.5l-8.1-31.8C341.9,260.3,344.8,255.4,349.5,254.1z"/>
	</g>
	<g>
		<path fill="#FFBCB9" d="M192.3,361l31.8-8.1c4.8-1.2,9.7,1.7,10.9,6.5l8.1,31.8c1.2,4.8-1.7,9.7-6.5,10.9l-31.8,8.1
			c-4.8,1.2-9.7-1.7-10.9-6.5l-8.1-31.8C184.7,367.1,187.6,362.2,192.3,361z"/>
	</g>
	<g>
		<path fill="#FFBCB9" d="M250.2,344.1L282,336c4.8-1.2,9.7,1.7,10.9,6.5l8.1,31.8c1.2,4.8-1.7,9.7-6.5,10.9l-31.8,8.1
			c-4.8,1.2-9.7-1.7-10.9-6.5l-8.1-31.8C242.5,350.2,245.4,345.3,250.2,344.1z"/>
	</g>
	<g>
		<path fill="#FFBCB9" d="M308.1,327.2l31.8-8.1c4.8-1.2,9.7,1.7,10.9,6.5l8.1,31.8c1.2,4.8-1.7,9.7-6.5,10.9l-31.8,8.1
			c-4.8,1.2-9.7-1.7-10.9-6.5l-8.1-31.8C300.4,333.4,303.3,328.5,308.1,327.2z"/>
	</g>
</g>
<g>
	<g>
		<path fill="#FFFFFF" d="M164,92.3c0,0-188.9,194-32.9,322.3C131.1,414.6,67.7,366.5,164,92.3z"/>
	</g>
	<g>
		<path fill="#FFFFFF" d="M147.7,439.8c-1.5,4.2,1.5,8.7,4.6,11.9c16.4,17.4,38.8,29,62.5,32.3c3.1-4.4,3.4-10.5,0.9-15.2
			c-1.4-2.6-3.6-4.6-5.8-6.5c-13.2-11.6-28.7-20.6-45.4-26.1c-3-1-6.2-1.9-9.3-1.6C152,435,148.8,436.8,147.7,439.8z"/>
	</g>
</g>
</svg>
