<?xml version="1.0" encoding="utf-8"?>
<!-- Generator: Adobe Illustrator 18.1.1, SVG Export Plug-In . SVG Version: 6.00 Build 0)  -->
<!DOCTYPE svg PUBLIC "-//W3C//DTD SVG 1.1//EN" "http://www.w3.org/Graphics/SVG/1.1/DTD/svg11.dtd">
<svg version="1.1" id="Layer_1" xmlns="http://www.w3.org/2000/svg" xmlns:xlink="http://www.w3.org/1999/xlink" x="0px" y="0px"
	 viewBox="0 0 551.9 560" enable-background="new 0 0 551.9 560" xml:space="preserve">
<g>
	<path fill="#C6F9FF" d="M6.7,285.5C6.6,82.1,214.1-45.2,394,43.4c92.9,45.8,150.2,142.1,146,245.6
		c-8.2,200.3-219.2,321.7-397.8,224.4C58.8,468.1,6.7,380.4,6.7,285.5z"/>
	<path fill="#FFFFFF" d="M273.6,553.6c-22.6,0-45.3-2.9-67.4-8.5c-70.5-17.9-129.8-62.3-167-124.8C2.1,357.8-8.5,284.5,9.5,214
		c15.2-59.9,49.1-111.3,98-148.8C155,28.8,213.8,8.8,273.2,8.8c22.6,0,45.3,2.9,67.4,8.5c70.5,17.9,129.8,62.3,167,124.8
		c37.2,62.5,47.8,135.8,29.8,206.3c-15.2,59.9-49.1,111.3-98,148.8C391.9,533.6,333,553.6,273.6,553.6z M273.2,20.8
		c-56.8,0-113.1,19.2-158.4,53.9C68.1,110.6,35.7,159.7,21.1,217c-17.2,67.4-7,137.4,28.5,197.2s92.2,102.2,159.6,119.3
		c21.1,5.4,42.8,8.1,64.4,8.1c56.8,0,113.1-19.2,158.4-53.9c46.8-35.9,79.2-85.1,93.7-142.3c17.2-67.4,7-137.4-28.5-197.2
		S405,46,337.6,28.9C316.5,23.5,294.8,20.8,273.2,20.8z"/>
</g>
<g>
	<g>
		<circle fill="#FFBCB9" cx="92.2" cy="277.7" r="29.3"/>
	</g>
	<g>
		<circle fill="#FFBCB9" cx="446.2" cy="362.4" r="25"/>
	</g>
	<g>
		<path fill="#FFBCB9" d="M114.4,275.9c-10.2,34.3-12.4,71.3-3.2,105.8s30.6,66.3,61.1,85c21.4,13.2,46.2,19.6,70.6,25.7
			c10.9,2.7,21.9,5.4,33.1,6.1c41.8,2.7,80.8-22,110.3-51.7c11.8-11.9,22.8-25,30.2-40.1c5.5-11.2,8.9-23.2,12-35.2
			c3.7-14.1,7.2-28.2,10.5-42.4c2.4-10.3,4.6-20.7,4.5-31.3c-0.2-14.7-5.1-29-9.9-42.9c-8.8-25.4-18.4-52-38.8-69.4
			c-10.1-8.6-22.1-14.4-34.2-20c-33.1-15.4-66.8-29.6-100.9-42.5c-19.6-7.5-41.8-14.5-61-6c-11.4,5-19.9,14.9-27.5,24.7
			c-14.8,19.1-27.8,39.5-39,60.8c-5.8,11.1-11.2,22.8-11.7,35.3c-0.2,3.9,0.1,7.8,0,11.8C120.1,258.6,117,267.2,114.4,275.9z"/>
	</g>
	<g>
		<g>
			<path fill="#FF5A53" d="M370.1,337.5c-0.2-8.3-5.4-16.5-13.3-21c-7.2-4.1-16.5-5.2-25.6-3c-4.7,1.1-11,3.6-14.4,9.1l-2.5-1.6
				c3.9-6.3,11-9.1,16.3-10.4c9.8-2.4,19.9-1.1,27.7,3.3c8.7,5,14.5,14.2,14.8,23.5L370.1,337.5z"/>
			<path fill="none" stroke="#FF5A53" stroke-width="4" stroke-linecap="round" stroke-miterlimit="10" d="M370.1,337.5
				c-0.2-8.3-5.4-16.5-13.3-21c-7.2-4.1-16.5-5.2-25.6-3c-4.7,1.1-11,3.6-14.4,9.1l-2.5-1.6c3.9-6.3,11-9.1,16.3-10.4
				c9.8-2.4,19.9-1.1,27.7,3.3c8.7,5,14.5,14.2,14.8,23.5L370.1,337.5z"/>
			<path fill="#FF5A53" d="M370.1,337.5c-0.2-8.3-5.4-16.5-13.3-21c-7.2-4.1-16.5-5.2-25.6-3c-4.7,1.1-11,3.6-14.4,9.1l-2.5-1.6
				c3.9-6.3,11-9.1,16.3-10.4c9.8-2.4,19.9-1.1,27.7,3.3c8.7,5,14.5,14.2,14.8,23.5L370.1,337.5z"/>
		</g>
	</g>
	<g>
		<g>
			<path fill="#FF5A53" d="M219.3,300c-0.2-8.3-5.4-16.5-13.3-21c-7.2-4.1-16.5-5.2-25.6-3c-4.7,1.1-11.1,3.6-14.4,9.1l-2.5-1.6
				c3.9-6.3,11-9.1,16.3-10.4c9.8-2.4,19.9-1.1,27.7,3.3c8.7,5,14.5,14.2,14.8,23.5L219.3,300z"/>
			<path fill="none" stroke="#FF5A53" stroke-width="4" stroke-miterlimit="10" d="M219.3,300c-0.2-8.3-5.4-16.5-13.3-21
				c-7.2-4.1-16.5-5.2-25.6-3c-4.7,1.1-11.1,3.6-14.4,9.1l-2.5-1.6c3.9-6.3,11-9.1,16.3-10.4c9.8-2.4,19.9-1.1,27.7,3.3
				c8.7,5,14.5,14.2,14.8,23.5L219.3,300z"/>
			<path fill="#FF5A53" d="M219.3,300c-0.2-8.3-5.4-16.5-13.3-21c-7.2-4.1-16.5-5.2-25.6-3c-4.7,1.1-11.1,3.6-14.4,9.1l-2.5-1.6
				c3.9-6.3,11-9.1,16.3-10.4c9.8-2.4,19.9-1.1,27.7,3.3c8.7,5,14.5,14.2,14.8,23.5L219.3,300z"/>
		</g>
	</g>
	<g>
		<g>
			<path fill="#FF5A53" d="M286.5,378.4c-2.1,0-4.2-0.5-5.8-0.9l-21.2-5.3c-6.3-1.6-12.8-3.2-18.7-6.3c-4.6-2.4-7.6-5.3-9.3-8.7
				c-2.2-4.5-1.6-9.8,1.5-13l2.1,2.1c-2.5,2.5-2.3,6.7-0.9,9.5c1.4,2.8,4.1,5.3,8.1,7.4c5.6,3,11.9,4.6,18,6.1l21.2,5.3
				c2.9,0.7,5.4,1.2,7.6,0.4c3.6-1.3,5.4-5.7,5.5-13.4l3,0.1c-0.1,3.3-0.2,13.5-7.5,16.2C288.8,378.2,287.6,378.4,286.5,378.4z"/>
			<path fill="none" stroke="#FF5A53" stroke-width="4" stroke-miterlimit="10" d="M286.5,378.4c-2.1,0-4.2-0.5-5.8-0.9l-21.2-5.3
				c-6.3-1.6-12.8-3.2-18.7-6.3c-4.6-2.4-7.6-5.3-9.3-8.7c-2.2-4.5-1.6-9.8,1.5-13l2.1,2.1c-2.5,2.5-2.3,6.7-0.9,9.5
				c1.4,2.8,4.1,5.3,8.1,7.4c5.6,3,11.9,4.6,18,6.1l21.2,5.3c2.9,0.7,5.4,1.2,7.6,0.4c3.6-1.3,5.4-5.7,5.5-13.4l3,0.1
				c-0.1,3.3-0.2,13.5-7.5,16.2C288.8,378.2,287.6,378.4,286.5,378.4z"/>
			<path fill="#FF5A53" d="M286.5,378.4c-2.1,0-4.2-0.5-5.8-0.9l-21.2-5.3c-6.3-1.6-12.8-3.2-18.7-6.3c-4.6-2.4-7.6-5.3-9.3-8.7
				c-2.2-4.5-1.6-9.8,1.5-13l2.1,2.1c-2.5,2.5-2.3,6.7-0.9,9.5c1.4,2.8,4.1,5.3,8.1,7.4c5.6,3,11.9,4.6,18,6.1l21.2,5.3
				c2.9,0.7,5.4,1.2,7.6,0.4c3.6-1.3,5.4-5.7,5.5-13.4l3,0.1c-0.1,3.3-0.2,13.5-7.5,16.2C288.8,378.2,287.6,378.4,286.5,378.4z"/>
		</g>
	</g>
	<g>
		<path fill="#FF5A53" d="M123.4,261.9c6.5-8.2,17.3-30.3,21.8-39.9c9.1-19.2,20.6-37.2,34.3-53.4c7.4-8.8,16-17.5,27.1-20.6
			c-6.6,19-6.5,40.2,0.3,59.2c0-9.6,5.2-19,13.2-24.1s18.8-5.7,27.4-1.6c-11.3,13.2-8.4,34.3,2.1,48.1s26.7,21.9,42.7,28.8
			c23.4,10.1,48,18.8,73.5,19.6c12.3,0.4,25.2-1,36.6,3.7c11.4,4.6,20.5,18.4,14.8,29.4c6.7-9.8,11-21.2,12.5-33
			c8.1,23,5.3,49.6-7.3,70.4c13.8-7.4,25.6-18.3,34.2-31.4c14.2-21.7,18.8-48.8,15.8-74.6s-13.2-50.3-26.5-72.5
			c-5.1-8.6-10.8-16.9-18.2-23.6c-7.3-6.7-16.1-11.7-24.9-16.4c-19-10.3-38.4-19.8-58.1-28.7c10.8-12.4,17.9-28,20.1-44.3
			c-19,10.9-37.8,22.9-57.4,32.8c4.7-8.1,6.9-12.5,7.8-21.7c0.5-5.4,2.1-10.8,3.2-16.2c1-4.6,1.2-10.9,3.2-15
			c-1.5,3.2-4.3,5.6-6.9,8c-14.8,13-31,29.6-50.9,34c-13.9,3-28.1-2.9-42.3-3.7c-12-0.7-23.9,2.3-35.3,6.4
			c-14.8,5.3-29.1,12.6-40.6,23.3c-21.3,20-30.4,49.8-35,78.7c-4.6,28.9-5.8,58.6-15.2,86.3C105.2,273.6,117.2,270.2,123.4,261.9"/>
	</g>
	<g>
		<g>
			<path fill="#FF5A53" d="M266.9,433.5c-6.1,0-12.1-0.5-18.1-1.6c-26.5-4.7-50.8-19.9-66.6-41.7l2.4-1.8
				c15.4,21.1,39,35.9,64.7,40.5c25.7,4.6,53-1.1,74.7-15.7l1.7,2.5C308.4,427.3,287.7,433.5,266.9,433.5z"/>
			<path fill="none" stroke="#FF5A53" stroke-width="4" stroke-miterlimit="10" d="M266.9,433.5c-6.1,0-12.1-0.5-18.1-1.6
				c-26.5-4.7-50.8-19.9-66.6-41.7l2.4-1.8c15.4,21.1,39,35.9,64.7,40.5c25.7,4.6,53-1.1,74.7-15.7l1.7,2.5
				C308.4,427.3,287.7,433.5,266.9,433.5z"/>
			<path fill="#FF5A53" d="M266.9,433.5c-6.1,0-12.1-0.5-18.1-1.6c-26.5-4.7-50.8-19.9-66.6-41.7l2.4-1.8
				c15.4,21.1,39,35.9,64.7,40.5c25.7,4.6,53-1.1,74.7-15.7l1.7,2.5C308.4,427.3,287.7,433.5,266.9,433.5z"/>
		</g>
	</g>
</g>
<g>
	<g>
		<path fill="#FFFFFF" d="M209.2,79.7c0,0-230.9,141.4-111.4,304.3C97.8,383.9,48.3,321.7,209.2,79.7z"/>
	</g>
	<g>
		<path fill="#FFFFFF" d="M107.7,412.4c-2.5,3.7-0.7,8.8,1.5,12.7c11.6,20.9,30.5,37.7,52.6,46.7c4.1-3.5,5.9-9.3,4.6-14.5
			c-0.7-2.8-2.3-5.3-4-7.8c-9.9-14.5-22.8-27-37.6-36.5c-2.7-1.7-5.5-3.4-8.7-3.8C113,408.8,109.5,409.8,107.7,412.4z"/>
	</g>
</g>
</svg>
