<?xml version="1.0" encoding="utf-8"?>
<!-- Generator: Adobe Illustrator 18.1.1, SVG Export Plug-In . SVG Version: 6.00 Build 0)  -->
<!DOCTYPE svg PUBLIC "-//W3C//DTD SVG 1.1//EN" "http://www.w3.org/Graphics/SVG/1.1/DTD/svg11.dtd">
<svg version="1.1" id="Layer_1" xmlns="http://www.w3.org/2000/svg" xmlns:xlink="http://www.w3.org/1999/xlink" x="0px" y="0px"
	 viewBox="0 0 442 179" enable-background="new 0 0 442 179" xml:space="preserve">
<g>
	<g>
		<path fill="#FFFFFF" d="M38.3,162.8c-1.4,0-2.7-1-2.9-2.5c-0.1-0.6-0.3-1.8-0.1-67.9c0-2.2,0-3.6,0-3.9c0-18.8,15.3-34,34-34
			c18.8,0,34,15.3,34,34c0,18.8-15.3,34-34,34c-11.5,0-21.9-5.8-28.1-14.8c-0.1,39.9-0.1,50.3,0,51.6c0.2,1.6-0.9,3.1-2.4,3.4
			C38.6,162.8,38.4,162.8,38.3,162.8z M41.3,92.4c0.2,0.3,0.4,0.7,0.5,1.1c2.4,13.3,14,23,27.6,23c15.5,0,28-12.6,28-28
			c0-15.5-12.6-28-28-28s-28,12.6-28,28C41.3,88.8,41.3,90.2,41.3,92.4z"/>
	</g>
</g>
<g>
	<path fill="#FFFFFF" d="M142.2,122.5c-18.8,0-34-15.3-34-34c0-0.6,0-2.6-0.1-5.6c-0.6-41.8-0.3-51.3,0.2-53c0.5-1.6,2.2-2.5,3.7-2
		c1.5,0.5,2.4,2.1,2,3.6c-0.4,2.3-0.4,19.6,0,51.3c0,3.1,0.1,5.1,0.1,5.7c0,15.5,12.6,28,28,28c10.6,0,20.1-5.8,25-15.2
		c0.8-1.5,2.6-2.1,4-1.3c1.5,0.8,2.1,2.6,1.3,4C166.6,115.4,155,122.5,142.2,122.5z"/>
</g>
<path fill="#FFFFFF" stroke="#FF6D10" stroke-width="6" stroke-linecap="round" stroke-miterlimit="10" d="M318.3,30.7"/>
<g>
	<g>
		<path fill="#FFFFFF" d="M207.5,122.5c-17.9,0-32.5-14.6-32.5-32.5c0-17.9,14.6-32.5,32.5-32.5s32.5,14.6,32.5,32.5
			C239.9,108,225.4,122.5,207.5,122.5z M207.5,63.3c-14.7,0-26.7,12-26.7,26.7c0,14.7,12,26.7,26.7,26.7c14.7,0,26.7-12,26.7-26.7
			C234.2,75.3,222.2,63.3,207.5,63.3z"/>
	</g>
	<g>
		<path fill="#FFFFFF" d="M237.1,94.3c-0.1,0-0.2,0-0.3,0c-1.6-0.1-2.7-1.5-2.6-3.1c0-0.8,0-7.8,0-10.1l0-1.5
			c0-14.7-12-26.7-26.7-26.7c-8.2,0-15.8,3.7-20.9,10c-1,1.2-2.8,1.4-4,0.4c-1.2-1-1.4-2.8-0.4-4c6.2-7.7,15.4-12.2,25.4-12.2
			c17.9,0,32.5,14.6,32.5,32.5l0,1.5c0,7.2,0,10,0,10.6C239.8,93.2,238.5,94.3,237.1,94.3z"/>
	</g>
</g>
<g>
	<path fill="#FFFFFF" d="M311.6,121.6c-0.1,0-0.1,0-0.2,0c-1.7-0.1-2.9-1.5-2.8-3.2c0-0.8-0.3-13.9-0.5-21.7
		c-0.1-5.7-0.2-7.9-0.2-8.2c0-15.5-12.6-28-28-28s-28,12.6-28,28c0,0.2,0.3,28.8,0.3,30c0,1.6-1.2,3-2.9,3.1c-1.6,0.1-3-1.2-3.1-2.8
		c0-0.7-0.3-30-0.3-30.2c0-18.8,15.3-34,34-34c18.8,0,34,15.3,34,34c0,0.3,0.1,3.7,0.2,8c0.4,18.4,0.5,21.8,0.4,22.2
		C314.4,120.4,313.1,121.6,311.6,121.6z"/>
</g>
<g>
	<g>
		<path fill="#FFFFFF" d="M397.3,122.5c-18.8,0-34-15.3-34-34c0-0.6,0-2.6,0-5.6c-0.1-24.5-0.2-49.9,0-52.4c0.1-1.7,1.6-2.9,3.2-2.8
			c1.7,0.1,2.9,1.6,2.8,3.2c-0.2,2.5-0.1,39.7,0,51.9c0,3,0,5.1,0,5.6c0,15.5,12.6,28,28,28c10.6,0,20.1-5.8,25-15.2
			c0.8-1.5,2.6-2.1,4-1.3c1.5,0.8,2.1,2.6,1.3,4C421.7,115.4,410.1,122.5,397.3,122.5z"/>
	</g>
	<g>
		<path fill="#FFFFFF" d="M390.2,53.4h-40.9c-1.7,0-3-1.3-3-3s1.3-3,3-3h40.9c1.7,0,3,1.3,3,3S391.9,53.4,390.2,53.4z"/>
	</g>
</g>
<g>
	<g>
		<path fill="#FFFFFF" d="M353,122.5c-18.8,0-34-15.3-34-34c0-0.5,0-2.6-0.1-5.5c-0.1-4.1-0.1-9.9-0.2-16.2c0-1.7,1.3-3,3-3
			c0,0,0,0,0,0c1.6,0,3,1.3,3,3c0.1,6.3,0.1,12.2,0.2,16.2c0,3,0.1,5.1,0.1,5.6c0,15.5,12.6,28,28,28c4,0,7.9-0.8,11.6-2.5
			c1.5-0.7,3.3,0,4,1.5c0.7,1.5,0,3.3-1.5,4C362.6,121.5,357.9,122.5,353,122.5z"/>
	</g>
	<g>
		<path fill="#FFFFFF" d="M321.7,62.2c-6.5,0-11.8-5.3-11.8-11.8s5.3-11.8,11.8-11.8s11.8,5.3,11.8,11.8S328.2,62.2,321.7,62.2z
			 M321.7,44.6c-3.2,0-5.8,2.6-5.8,5.8s2.6,5.8,5.8,5.8s5.8-2.6,5.8-5.8S324.9,44.6,321.7,44.6z"/>
	</g>
</g>
<g>
	<path fill="#FFFFFF" d="M24.2,65.2c-6.5,0-11.8-5.3-11.8-11.8s5.3-11.8,11.8-11.8S36,46.9,36,53.4S30.7,65.2,24.2,65.2z M24.2,47.6
		c-3.2,0-5.8,2.6-5.8,5.8s2.6,5.8,5.8,5.8s5.8-2.6,5.8-5.8S27.4,47.6,24.2,47.6z"/>
</g>
</svg>
