<?xml version="1.0" encoding="utf-8"?>
<!-- Generator: Adobe Illustrator 18.1.1, SVG Export Plug-In . SVG Version: 6.00 Build 0)  -->
<!DOCTYPE svg PUBLIC "-//W3C//DTD SVG 1.1//EN" "http://www.w3.org/Graphics/SVG/1.1/DTD/svg11.dtd">
<svg version="1.1" id="Layer_1" xmlns="http://www.w3.org/2000/svg" xmlns:xlink="http://www.w3.org/1999/xlink" x="0px" y="0px"
	 viewBox="0 0 46.5 47.2" enable-background="new 0 0 46.5 47.2" xml:space="preserve">
<circle fill="#FFFFFF" cx="22.8" cy="23.4" r="18.7"/>
<path fill="#FF7F79" enable-background="new    " d="M22.8,7.4c-8.8,0-16,7.2-16,16c0,8.8,7.2,16,16,16c8.8,0,16-7.2,16-16
	C38.8,14.5,31.6,7.4,22.8,7.4z M26.2,23.4H24c0,3.6,0,8,0,8h-3.3c0,0,0-4.4,0-8h-1.6v-2.8h1.6v-1.8c0-1.3,0.6-3.4,3.4-3.4l2.5,0v2.7
	c0,0-1.5,0-1.8,0c-0.3,0-0.7,0.1-0.7,0.8v1.7h2.5L26.2,23.4z"/>
</svg>
