<?xml version="1.0" encoding="utf-8"?>
<!-- Generator: Adobe Illustrator 18.1.1, SVG Export Plug-In . SVG Version: 6.00 Build 0)  -->
<!DOCTYPE svg PUBLIC "-//W3C//DTD SVG 1.1//EN" "http://www.w3.org/Graphics/SVG/1.1/DTD/svg11.dtd">
<svg version="1.1" id="Layer_1" xmlns="http://www.w3.org/2000/svg" xmlns:xlink="http://www.w3.org/1999/xlink" x="0px" y="0px"
	 viewBox="0 0 46.5 47.2" enable-background="new 0 0 46.5 47.2" xml:space="preserve">
<circle fill="#FFFFFF" cx="23.5" cy="24.7" r="18.7"/>
<path fill="#FF5A53" enable-background="new    " d="M23.3,8.7c-8.8,0-16,7.2-16,16c0,8.8,7.2,16,16,16s16-7.2,16-16
	C39.3,15.8,32.1,8.7,23.3,8.7z M17.4,32.6c-1.2,0-2.1-1-2.1-2.1c0-1.2,1-2.1,2.1-2.1c1.2,0,2.1,0.9,2.1,2.1
	C19.6,31.7,18.6,32.6,17.4,32.6z M22.8,32.7c0-2-0.8-3.9-2.2-5.3c-1.4-1.4-3.3-2.2-5.3-2.2v-3.1c5.8,0,10.5,4.7,10.5,10.6H22.8z
	 M28.2,32.7c0-7.1-5.8-12.9-12.9-12.9v-3.1c8.8,0,15.9,7.2,15.9,16H28.2z"/>
</svg>
