<?xml version="1.0" encoding="utf-8"?>
<!-- Generator: Adobe Illustrator 18.1.1, SVG Export Plug-In . SVG Version: 6.00 Build 0)  -->
<!DOCTYPE svg PUBLIC "-//W3C//DTD SVG 1.1//EN" "http://www.w3.org/Graphics/SVG/1.1/DTD/svg11.dtd">
<svg version="1.1" id="Layer_1" xmlns="http://www.w3.org/2000/svg" xmlns:xlink="http://www.w3.org/1999/xlink" x="0px" y="0px"
	 viewBox="0 0 46.5 47.2" enable-background="new 0 0 46.5 47.2" xml:space="preserve">
<circle fill="#FFFFFF" cx="22.8" cy="22.4" r="18.7"/>
<path fill="#FFBCB9" enable-background="new    " d="M22.6,6.4c-8.8,0-16,7.2-16,16c0,8.8,7.2,16,16,16c8.8,0,16-7.2,16-16
	C38.6,13.5,31.4,6.4,22.6,6.4z M29,19.1c0,0.1,0,0.3,0,0.4c0,4.3-3.3,9.3-9.3,9.3c-1.9,0-3.6-0.5-5-1.5c0.3,0,0.5,0,0.8,0
	c1.5,0,3-0.5,4.1-1.4c-1.4,0-2.6-1-3.1-2.3c0.2,0,0.4,0.1,0.6,0.1c0.3,0,0.6,0,0.9-0.1c-1.5-0.3-2.6-1.6-2.6-3.2c0,0,0,0,0,0
	c0.4,0.2,0.9,0.4,1.5,0.4c-0.9-0.6-1.5-1.6-1.5-2.7c0-0.6,0.2-1.2,0.4-1.7c1.6,2,4,3.3,6.8,3.4c-0.1-0.2-0.1-0.5-0.1-0.7
	c0-1.8,1.5-3.3,3.3-3.3c0.9,0,1.8,0.4,2.4,1c0.7-0.1,1.5-0.4,2.1-0.8c-0.2,0.8-0.8,1.4-1.4,1.8c0.7-0.1,1.3-0.3,1.9-0.5
	C30.2,18.1,29.6,18.7,29,19.1z"/>
</svg>
