<?xml version="1.0" encoding="utf-8"?>
<!-- Generator: Adobe Illustrator 18.1.1, SVG Export Plug-In . SVG Version: 6.00 Build 0)  -->
<!DOCTYPE svg PUBLIC "-//W3C//DTD SVG 1.1//EN" "http://www.w3.org/Graphics/SVG/1.1/DTD/svg11.dtd">
<svg version="1.1" id="Layer_1" xmlns="http://www.w3.org/2000/svg" xmlns:xlink="http://www.w3.org/1999/xlink" x="0px" y="0px"
	 viewBox="0 0 551.9 560" enable-background="new 0 0 551.9 560" xml:space="preserve">
<g>
	<circle fill="#C6F9FF" cx="276.4" cy="280" r="266.4"/>
	<path fill="#FFFFFF" d="M276.1,552.4c-65.5,0-129-23.8-178.6-67.1C47.3,441.7,15,381.3,6.4,315.4c-9.5-72.1,9.8-143.6,54.1-201.3
		C104.8,56.4,168.9,19.4,241,9.9c11.8-1.6,23.9-2.3,35.7-2.3c65.5,0,129,23.8,178.6,67.1c50.1,43.6,82.4,104,91.1,169.9
		c9.5,72.1-9.8,143.6-54.1,201.3c-44.3,57.7-108.5,94.7-180.6,104.1C300,551.6,287.9,552.4,276.1,552.4z M276.7,19.6
		c-11.3,0-22.8,0.8-34.2,2.2c-69,9-130.3,44.4-172.6,99.5C27.6,176.5,9.2,244.9,18.3,313.8c8.3,63,39.2,120.7,87.1,162.5
		c47.5,41.4,108.1,64.1,170.8,64.1c11.3,0,22.8-0.8,34.2-2.2c69-9,130.3-44.4,172.6-99.5c42.4-55.1,60.7-123.5,51.7-192.5
		c-8.3-63-39.2-120.7-87.1-162.5C400,42.4,339.4,19.6,276.7,19.6z"/>
</g>
<g>
	<g>
		<path fill="#FF5A53" d="M462.9,139.2c-0.7-0.4-1.4-0.8-2.1-1.1c-5,5.1-11.2,9.1-18.3,11.4c-25,8.2-50.6-6.7-56.1-31.9
			c-1.7-7.5-1.6-15.1,0-22.4c-1.2-0.7-2.4-1.5-3.6-2.2c-20-12.3-46.6-5.1-61.2,15.4C253.4,204.7,166.7,286.5,66.1,349
			c-21.5,13.2-22.8,38.6-0.9,57.5c2.2,1.9,4.5,3.8,6.8,5.8c7.4-2.8,16.2-4,25.7-3.2c26.4,2.2,49.1,19.5,51,40
			c0.7,7.6-1.7,14.5-6.5,20c3.5,2.7,7.1,5.4,10.6,8.1c24,18.4,62.7,20.6,83.7,4c98.6-76.6,181.2-171.1,243.8-278.5
			C493.7,179.6,484.8,150.8,462.9,139.2z"/>
	</g>
	<g>
		<path fill="#FFBCB9" d="M235.8,434.1c76.3-56.9,139.6-129,186.1-211.6c3.6-6.4,1.2-14.3-4.9-17.5c-29.5-15.4-57.2-31.6-83-48.2
			c-5.4-3.5-12.9-1.6-16.8,4.2c-50.5,74.7-116.7,137.6-194.3,184.2c-6,3.6-6.3,10.6-0.4,15.8c28,24.4,58.1,48.6,90.2,72.1
			C219.4,438,229.9,438.6,235.8,434.1z"/>
	</g>
</g>
<g>
	<g>
		<path fill="#FFFFFF" d="M142.1,116.6c0,0-162.1,216.9,9.2,323.9C151.3,440.5,82.3,401,142.1,116.6z"/>
	</g>
	<g>
		<path fill="#FFFFFF" d="M171.1,463.3c-1,4.4,2.6,8.4,6.1,11.2c18.5,15.1,42.3,23.7,66.2,23.9c2.5-4.7,2.1-10.9-1.1-15.2
			c-1.7-2.3-4.1-4.1-6.6-5.7c-14.6-9.8-31.2-16.7-48.4-20c-3.1-0.6-6.4-1.1-9.5-0.3C174.7,457.9,171.8,460.2,171.1,463.3z"/>
	</g>
</g>
</svg>
